<?xml version="1.0" standalone="no"?><!DOCTYPE svg PUBLIC "-//W3C//DTD SVG 1.1//EN" "http://www.w3.org/Graphics/SVG/1.1/DTD/svg11.dtd"><svg class="icon" width="200px" height="200.00px" viewBox="0 0 1024 1024" version="1.1" xmlns="http://www.w3.org/2000/svg"><path fill="#ffffff" d="M855.86 627.57c-5.311-73.13-54.382-134.397-82.748-166.086 3.937-9.219 13.519-62.582-23.48-98.992 0.059-0.874 0.059-1.74 0.059-2.587 0-143.633-102.234-247.017-230.513-247.487-128.299 0.47-230.529 103.855-230.529 247.487 0 0.847-0.012 1.713 0.05 2.587-37 36.41-27.4 89.773-23.481 98.992-28.347 31.689-77.425 92.956-82.745 166.087-0.96 19.224 2.013 47.228 11.404 59.673 11.443 15.177 42.852-3.047 65.314-51.536 6.25 22.464 20.673 56.757 53.311 100.284-54.62 12.465-70.201 66.339-51.825 95.787 12.96 20.751 42.63 37.818 93.765 37.818 90.979 0 131.156-24.45 149.087-41.477 3.655-3.714 8.927-5.505 15.65-5.52 6.7 0.015 11.983 1.806 15.625 5.52 17.934 17.026 58.12 41.477 149.077 41.477 51.153 0 80.804-17.067 93.764-37.818 18.38-29.448 2.804-83.323-51.803-95.787 32.639-43.528 47.066-77.82 53.311-100.284 22.468 48.489 53.871 66.712 65.324 51.536 9.381-12.445 12.358-40.449 11.382-59.673z" /></svg>