<?xml version="1.0" standalone="no"?><!DOCTYPE svg PUBLIC "-//W3C//DTD SVG 1.1//EN" "http://www.w3.org/Graphics/SVG/1.1/DTD/svg11.dtd"><svg class="icon" width="200px" height="200.00px" viewBox="0 0 1024 1024" version="1.1" xmlns="http://www.w3.org/2000/svg"><path fill="#ffffff" d="M745.604154 597.504993c-23.479784 0-42.571627-19.132775-42.571627-42.903179 0-23.603604 19.09082-42.736379 42.571627-42.736379s42.571627 19.132775 42.571627 42.736379C788.174758 578.372218 769.083938 597.504993 745.604154 597.504993M575.526401 597.504993c-23.066368 0-41.826659-19.132775-41.826659-42.903179 0-23.603604 18.760291-42.736379 41.826659-42.736379 23.1073 0 41.866568 19.132775 41.866568 42.736379C617.392969 578.372218 598.633701 597.504993 575.526401 597.504993M957.259903 631.090959c0-127.714881-112.432811-232.279483-254.931411-241.307099-6.666847-0.372484-13.333693-0.621147-20.001563-0.621147-151.897677 0-274.973907 108.333442-274.973907 241.928247 0 20.126406 2.857074 39.631665 8.157805 58.286556 29.568462 105.454879 137.777061 183.640667 266.816101 183.640667 43.895787 0 85.308006-9.027616 122.040642-25.136519l61.745334 42.633025c0 0 16.439431 11.63705 14.824652-10.745749l-17.434085-66.796379C921.023571 768.681778 957.259903 703.643441 957.259903 631.090959M278.519666 343.153797c-23.52174 0-42.612559-19.111286-42.612559-42.737403 0-23.728448 19.089796-42.861223 42.612559-42.861223 23.604628 0 42.571627 19.131752 42.571627 42.861223C321.091293 324.042511 302.125317 343.153797 278.519666 343.153797M491.087182 257.556194c23.479784 0 42.612559 19.131752 42.612559 42.861223 0 23.625094-19.131752 42.737403-42.612559 42.737403-23.562672 0-42.571627-19.111286-42.571627-42.737403C448.515555 276.687946 467.52451 257.556194 491.087182 257.556194M682.326929 368.995374c5.921879 0 11.718914 0.26913 17.557905 0.53826-22.651929-135.250515-155.004438-239.07015-314.895168-239.07015-175.751992 0-318.249569 125.477931-318.249569 280.088396 0 86.198284 44.269294 163.245131 113.799949 214.658132l-23.52174 89.697994c0 0-8.033985 29.753681 22.404288 16.398498l87.668776-60.584904c36.482949 12.898788 76.197502 20.042495 117.899318 20.042495 3.561109 0 7.040354-0.24764 10.476619-0.24764-5.052068-19.153241-7.784298-39.05145-7.784298-59.425497C387.681987 486.604073 519.909653 368.995374 682.326929 368.995374" /></svg>